<svg width="64" height="64" viewBox="0 0 64 64" fill="none" xmlns="http://www.w3.org/2000/svg">
  <rect fill="#4F4F4F" height="64" width="64" y="0" x="0"/>
  <path fill="#383737" d="M 32 7.2480469 L 32 10.720703 C 20.246737 10.72031 10.718359 20.246734 10.71875 32 L 10.71875 42.640625 L 21.359375 42.640625 L 21.359375 32 C 21.358634 26.122611 26.122613 21.358633 32 21.359375 L 32 24.832031 L 42.638672 16.041016 L 32 7.2480469 z M 42.640625 21.359375 L 42.640625 32 C 42.641366 37.877389 37.877388 42.641367 32 42.640625 L 32 39.167969 L 21.361328 47.958984 L 32 56.751953 L 32 53.279297 C 43.753264 53.27969 53.281641 43.753265 53.28125 32 L 53.279297 21.359375 L 42.640625 21.359375 z " />
</svg>
