<svg width="64" height="64" viewBox="0 0 64 64" fill="none" xmlns="http://www.w3.org/2000/svg">
<rect x="0" y="0" width="64" height="64" fill="#4F4F4F"/>
<path d="M52.0838 36.5038L48.1874 33.4448C48.3082 32.3772 48.3082 31.2992 48.1874 30.2315L52.0873 27.1708C52.8181 26.5799 53.0134 25.5436 52.5483 24.7254L48.4948 17.6906C48.0279 16.8672 47.0336 16.5076 46.151 16.843L41.5587 18.6979C40.6958 18.0693 39.7714 17.5304 38.7998 17.0895L38.0951 12.1916C37.968 11.2512 37.1645 10.5523 36.2194 10.5601H28.0947C27.1574 10.5544 26.3603 11.2455 26.2295 12.1773L25.523 17.0894C24.5545 17.5346 23.6316 18.0739 22.7677 18.6996L18.163 16.8411C17.2896 16.4954 16.2961 16.8507 15.8369 17.6728L11.7798 24.72C11.3022 25.5396 11.4988 26.5873 12.2408 27.1761L16.1371 30.2351C16.0151 31.3027 16.0151 32.3808 16.1371 33.4484L12.2372 36.5074C11.5052 37.0975 11.309 38.1343 11.7745 38.9528L15.8263 45.9894C16.2926 46.8134 17.2875 47.1733 18.1701 46.837L22.7623 44.9821C23.626 45.611 24.551 46.1505 25.523 46.5923L26.2294 51.4867C26.3538 52.4245 27.1523 53.1238 28.0946 53.1199H36.2193C37.1583 53.1275 37.9579 52.4362 38.0897 51.5027L38.7962 46.5906C39.7647 46.1453 40.6875 45.606 41.5515 44.9804L46.1614 46.8406C47.0349 47.1855 48.0278 46.8305 48.4876 46.009L52.557 38.9334C53.0126 38.1163 52.8123 37.0883 52.0838 36.5038ZM32.157 40.7066C27.2797 40.7066 23.3257 36.7369 23.3257 31.8399C23.3257 26.943 27.2796 22.9733 32.157 22.9733C37.0344 22.9733 40.9882 26.943 40.9882 31.8399C40.9823 36.7345 37.0319 40.7008 32.157 40.7066Z" fill="#383737"/>
</svg>
